<svg width="680" height="769" viewBox="0 0 680 769" fill="none" xmlns="http://www.w3.org/2000/svg">
<g clip-path="url(#clip0)">
<g opacity="0.2">
<path opacity="0.2" d="M505.11 701.05C504.498 702.19 503.792 703.277 503 704.3C495.993 699.373 488.867 694.536 481.62 689.79L482.09 688.86C483.767 685.621 486.276 682.887 489.36 680.94C493.36 678.48 497.87 677.94 501.58 679.94C505.29 681.94 507.36 685.94 507.58 690.61C507.693 694.247 506.841 697.849 505.11 701.05Z" fill="#3F3D56"/>
<path opacity="0.2" d="M514.869 682.741C519.277 674.42 517.699 664.946 511.345 661.58C504.99 658.214 496.266 662.231 491.858 670.552C487.451 678.874 489.029 688.348 495.383 691.714C501.737 695.079 510.462 691.062 514.869 682.741Z" fill="#3F3D56"/>
<path opacity="0.2" d="M524.625 664.327C529.032 656.006 527.454 646.532 521.1 643.166C514.745 639.8 506.021 643.817 501.613 652.138C497.206 660.459 498.784 669.934 505.138 673.3C511.492 676.665 520.217 672.648 524.625 664.327Z" fill="#3F3D56"/>
<path opacity="0.2" d="M534.38 645.914C538.787 637.593 537.209 628.119 530.855 624.753C524.501 621.387 515.776 625.404 511.369 633.725C506.961 642.046 508.539 651.521 514.893 654.886C521.248 658.252 529.972 654.235 534.38 645.914Z" fill="#3F3D56"/>
<path opacity="0.2" d="M544.125 627.511C548.533 619.19 546.955 609.715 540.6 606.349C534.246 602.984 525.522 607.001 521.114 615.322C516.706 623.643 518.284 633.117 524.639 636.483C530.993 639.849 539.717 635.832 544.125 627.511Z" fill="#3F3D56"/>
<path opacity="0.2" d="M556.25 472.55C555.717 469.717 555.382 466.85 555.25 463.97L588.17 475.05L555.34 457.97C555.816 449.483 558.021 441.183 561.817 433.577C565.614 425.972 570.923 419.222 577.42 413.74L609.23 459.74L584.53 408.58C591.789 404.037 599.906 401.037 608.375 399.768C616.843 398.499 625.483 398.987 633.755 401.202C642.027 403.418 649.754 407.313 656.455 412.645C663.155 417.977 668.686 424.632 672.703 432.195C676.72 439.758 679.136 448.068 679.801 456.605C680.466 465.143 679.366 473.726 676.569 481.82C673.772 489.914 669.338 497.345 663.544 503.65C657.75 509.956 650.719 515 642.89 518.47C643.704 522.885 644.039 527.374 643.89 531.86L593.89 531.46L643.17 539.58C641.504 549.813 637.313 559.47 630.977 567.676C624.641 575.882 616.359 582.38 606.88 586.58C608.968 598.097 607.773 609.968 603.433 620.838C599.092 631.707 591.78 641.136 582.334 648.046C572.887 654.957 561.687 659.069 550.013 659.914C538.339 660.759 526.663 658.302 516.32 652.824C505.977 647.347 497.384 639.069 491.523 628.938C485.662 618.807 482.771 607.231 483.178 595.534C483.586 583.836 487.277 572.49 493.829 562.792C500.381 553.093 509.53 545.434 520.23 540.69C517.738 526.928 519.942 512.728 526.489 500.369C533.036 488.01 543.545 478.21 556.33 472.54L556.25 472.55Z" fill="#3DB83A"/>
<path opacity="0.1" d="M636.64 558.76C630.109 571.131 619.596 580.937 606.8 586.59C608.888 598.107 607.693 609.979 603.353 620.848C599.012 631.718 591.7 641.147 582.254 648.057C572.807 654.967 561.607 659.08 549.933 659.924C538.259 660.769 526.583 658.313 516.24 652.835C505.897 647.357 497.304 639.079 491.443 628.948C485.582 618.817 482.691 607.241 483.098 595.544C483.506 583.847 487.197 572.5 493.749 562.802C500.302 553.104 509.45 545.445 520.15 540.7C517.73 527.41 639.92 552.57 636.64 558.76Z" fill="black"/>
</g>
<g opacity="0.2">
<path opacity="0.2" d="M217 621.719C217.593 624.133 218.392 626.492 219.39 628.769C234.797 622.869 250.38 617.202 266.14 611.769C266 611.129 265.86 610.469 265.7 609.769C264.1 602.93 260.707 596.641 255.87 591.549C249.58 585.069 241.42 581.909 233.57 583.829C225.72 585.749 219.94 592.299 217.33 600.919C215.366 607.699 215.252 614.881 217 621.719Z" fill="#3F3D56"/>
<path opacity="0.2" d="M239.654 608.623C253.105 605.339 260.524 588.406 256.227 570.803C251.929 553.2 237.541 541.591 224.09 544.875C210.64 548.159 203.22 565.092 207.517 582.695C211.815 600.299 226.203 611.907 239.654 608.623Z" fill="#3F3D56"/>
<path opacity="0.2" d="M230.132 569.66C243.583 566.376 251.003 549.444 246.705 531.84C242.407 514.237 228.019 502.628 214.569 505.912C201.118 509.196 193.698 526.129 197.996 543.732C202.294 561.336 216.682 572.944 230.132 569.66Z" fill="#3F3D56"/>
<path opacity="0.2" d="M220.623 530.697C234.074 527.413 241.494 510.481 237.196 492.877C232.898 475.274 218.51 463.666 205.06 466.949C191.609 470.233 184.189 487.166 188.487 504.769C192.785 522.373 207.172 533.981 220.623 530.697Z" fill="#3F3D56"/>
<path opacity="0.2" d="M211.114 491.744C224.565 488.46 231.985 471.528 227.687 453.924C223.389 436.321 209.001 424.712 195.551 427.996C182.1 431.28 174.68 448.213 178.978 465.816C183.275 483.42 197.663 495.028 211.114 491.744Z" fill="#3F3D56"/>
<path opacity="0.2" d="M229.38 171.05C231.678 166.005 233.619 160.806 235.19 155.49L168.64 160.6L238 144.19C241.115 128.12 240.919 111.584 237.424 95.5934C233.928 79.6026 227.206 64.4931 217.67 51.1895L136.55 122.05L206.81 38.2195C195.403 26.3297 181.671 16.9149 166.468 10.561C151.266 4.20716 134.918 1.05026 118.443 1.28679C101.968 1.52332 85.7176 5.14823 70.7038 11.9359C55.6899 18.7236 42.2338 28.5287 31.1728 40.7411C20.1118 52.9536 11.6827 67.3118 6.41014 82.9223C1.13757 98.5329 -0.865611 115.062 0.525218 131.48C1.91605 147.898 6.67113 163.854 14.4945 178.355C22.318 192.856 33.0423 205.592 46 215.77C42.4175 223.625 39.6983 231.847 37.89 240.29L131.48 263.17L35.68 255.05C33.9388 274.958 37.1914 294.986 45.1433 313.321C53.0952 331.655 65.4951 347.716 81.22 360.05C71.8859 380.558 68.5111 403.279 71.4814 425.616C74.4517 447.952 83.6473 469.001 98.0167 486.358C112.386 503.714 131.35 516.677 152.739 523.764C174.128 530.851 197.08 531.777 218.97 526.434C240.861 521.092 260.806 509.698 276.526 493.555C292.246 477.411 303.107 457.17 307.865 435.146C312.624 413.121 311.089 390.202 303.437 369.009C295.784 347.815 282.322 329.203 264.59 315.3C275.746 290.79 278.339 263.241 271.954 237.08C265.568 210.919 250.574 187.663 229.38 171.05Z" fill="#3DB83A"/>
<path opacity="0.1" d="M38.6599 293.989C45.0068 320.155 60.0036 343.412 81.2199 359.989C71.8858 380.498 68.511 403.219 71.4813 425.555C74.4517 447.891 83.6472 468.941 98.0167 486.297C112.386 503.654 131.35 516.617 152.739 523.704C174.128 530.791 197.08 531.716 218.97 526.374C240.861 521.032 260.806 509.638 276.526 493.494C292.246 477.351 303.106 457.11 307.865 435.086C312.624 413.061 311.089 390.142 303.437 368.948C295.784 347.755 282.322 329.142 264.59 315.239C275.38 291.599 35.4599 280.899 38.6599 293.989Z" fill="black"/>
</g>
<path d="M560 168.31H557.77V48.0498C557.77 21.5298 535.94 0.0498047 509.01 0.0498047H235.88C208.95 0.0498047 187.12 21.5498 187.12 48.0498V97.8998H186.95H186.47C185.716 97.8945 184.99 98.1883 184.452 98.7168C183.914 99.2454 183.608 99.9657 183.6 100.72V124.72C183.608 125.474 183.914 126.194 184.452 126.723C184.99 127.251 185.716 127.545 186.47 127.54H187H187.17V152.05H186.29C185.917 152.047 185.547 152.118 185.202 152.258C184.856 152.399 184.541 152.606 184.276 152.867C184.01 153.129 183.799 153.441 183.654 153.785C183.509 154.128 183.433 154.497 183.43 154.87V200.76C183.435 201.514 183.739 202.235 184.275 202.766C184.811 203.296 185.536 203.592 186.29 203.59H187.17V221.59H186.41C186.036 221.586 185.665 221.656 185.319 221.795C184.972 221.935 184.656 222.142 184.389 222.404C184.123 222.666 183.91 222.978 183.765 223.322C183.619 223.666 183.543 224.036 183.54 224.41V270.75C183.543 271.124 183.619 271.493 183.765 271.837C183.91 272.182 184.123 272.494 184.389 272.756C184.656 273.018 184.972 273.224 185.319 273.364C185.665 273.504 186.036 273.574 186.41 273.57H187.17V693.95C187.17 720.47 209 741.95 235.93 741.95H509C535.93 741.95 557.76 720.45 557.76 693.95V258.25H560C560.754 258.255 561.48 257.961 562.018 257.433C562.556 256.904 562.862 256.184 562.87 255.43V171.13C562.862 170.376 562.556 169.655 562.018 169.127C561.48 168.598 560.754 168.304 560 168.31Z" fill="url(#paint0_linear)"/>
<g opacity="0.9">
<path opacity="0.9" d="M555.66 171.26H549.47C548.205 171.26 547.18 172.285 547.18 173.55V257.79C547.18 259.055 548.205 260.08 549.47 260.08H555.66C556.925 260.08 557.95 259.055 557.95 257.79V173.55C557.95 172.285 556.925 171.26 555.66 171.26Z" fill="#E5E7EB"/>
<path opacity="0.9" d="M192.81 101.68H191.34C190.075 101.68 189.05 102.705 189.05 103.97V128.63C189.05 129.894 190.075 130.92 191.34 130.92H192.81C194.075 130.92 195.1 129.894 195.1 128.63V103.97C195.1 102.705 194.075 101.68 192.81 101.68Z" fill="#E5E7EB"/>
<path opacity="0.9" d="M193.36 155.21H191.12C189.855 155.21 188.83 156.235 188.83 157.5V203.81C188.83 205.075 189.855 206.1 191.12 206.1H193.36C194.625 206.1 195.65 205.075 195.65 203.81V157.5C195.65 156.235 194.625 155.21 193.36 155.21Z" fill="#E5E7EB"/>
<path opacity="0.9" d="M193.14 223.91H191.23C189.965 223.91 188.94 224.935 188.94 226.2V272.95C188.94 274.215 189.965 275.24 191.23 275.24H193.14C194.405 275.24 195.43 274.215 195.43 272.95V226.2C195.43 224.935 194.405 223.91 193.14 223.91Z" fill="#E5E7EB"/>
<path opacity="0.9" d="M514 5.0498H231.46C209.926 5.0498 192.47 22.5062 192.47 44.0398V698.77C192.47 720.303 209.926 737.76 231.46 737.76H514C535.534 737.76 552.99 720.303 552.99 698.77V44.0398C552.99 22.5062 535.534 5.0498 514 5.0498Z" fill="white"/>
<path opacity="0.9" d="M384.44 26.9297H341.83C339.693 26.9297 337.96 28.6623 337.96 30.7997V33.2797C337.96 35.417 339.693 37.1497 341.83 37.1497H384.44C386.577 37.1497 388.31 35.417 388.31 33.2797V30.7997C388.31 28.6623 386.577 26.9297 384.44 26.9297Z" fill="#E5E7EB"/>
<path opacity="0.9" d="M401.71 37.8402C404.913 37.8402 407.51 35.2435 407.51 32.0402C407.51 28.837 404.913 26.2402 401.71 26.2402C398.507 26.2402 395.91 28.837 395.91 32.0402C395.91 35.2435 398.507 37.8402 401.71 37.8402Z" fill="#E5E7EB"/>
</g>
<path d="M502.1 24.1396H460.83V29.1396C460.827 35.3917 458.342 41.3868 453.92 45.8068C449.498 50.2267 443.502 52.7097 437.25 52.7097H305.67C299.418 52.7097 293.422 50.2267 289 45.8068C284.578 41.3868 282.093 35.3917 282.09 29.1396V24.1396H243.37C235.777 24.1396 228.495 27.156 223.126 32.5252C217.756 37.8944 214.74 45.1765 214.74 52.7697V690.05C214.74 697.643 217.756 704.925 223.126 710.294C228.495 715.663 235.777 718.68 243.37 718.68H502.1C509.693 718.68 516.975 715.663 522.344 710.294C527.714 704.925 530.73 697.643 530.73 690.05V52.7697C530.73 45.1765 527.714 37.8944 522.344 32.5252C516.975 27.156 509.693 24.1396 502.1 24.1396Z" fill="#ECECF3"/>
<path d="M87.2599 763.22C118.845 763.22 144.45 758.89 144.45 753.55C144.45 748.209 118.845 743.88 87.2599 743.88C55.6748 743.88 30.0699 748.209 30.0699 753.55C30.0699 758.89 55.6748 763.22 87.2599 763.22Z" fill="#3DB83A"/>
<path d="M110.91 737.73C113.36 735.45 115.66 732.73 116.36 729.5C117.06 726.27 115.68 722.31 112.55 721.12C109.05 719.78 105.31 722.2 102.48 724.65C99.65 727.1 96.39 729.9 92.68 729.38C94.5964 727.646 96.0291 725.444 96.8374 722.99C97.6456 720.535 97.8016 717.913 97.29 715.38C97.13 714.337 96.6873 713.358 96.01 712.55C94.07 710.47 90.55 711.36 88.22 713C80.83 718.2 78.76 728.25 78.72 737.3C77.97 734.03 78.6 730.63 78.58 727.3C78.56 723.97 77.65 720.24 74.83 718.44C73.0674 717.497 71.0878 717.035 69.09 717.1C65.77 716.98 62.09 717.31 59.8 719.74C56.97 722.74 57.71 727.83 60.16 731.16C62.61 734.49 66.35 736.57 69.79 738.87C72.4 740.62 75.05 742.66 76.66 745.43C76.8717 745.8 77.0427 746.192 77.17 746.6H98C102.682 744.236 107.024 741.253 110.91 737.73Z" fill="#3DB83A"/>
<g opacity="0.4">
<path opacity="0.4" d="M620.02 705.87C638.047 705.87 652.66 703.399 652.66 700.35C652.66 697.301 638.047 694.83 620.02 694.83C601.993 694.83 587.38 697.301 587.38 700.35C587.38 703.399 601.993 705.87 620.02 705.87Z" fill="#3DB83A"/>
<path opacity="0.4" d="M633.51 691.32C634.998 690.106 636.086 688.472 636.63 686.63C637.03 684.76 636.23 682.52 634.45 681.84C632.45 681.08 630.32 682.46 628.7 683.84C627.08 685.22 625.23 686.84 623.11 686.54C624.206 685.55 625.025 684.292 625.487 682.889C625.948 681.486 626.035 679.987 625.74 678.54C625.649 677.946 625.397 677.389 625.01 676.93C623.9 675.74 621.89 676.25 620.57 677.18C616.35 680.18 615.17 685.89 615.14 691.05C614.72 689.19 615.08 687.25 615.07 685.34C615.06 683.43 614.53 681.34 612.92 680.28C611.915 679.746 610.788 679.484 609.65 679.52C607.75 679.45 605.65 679.64 604.34 681.02C602.73 682.75 603.15 685.64 604.55 687.54C605.95 689.44 608.08 690.63 610.05 691.94C611.619 692.88 612.958 694.157 613.97 695.68C614.09 695.892 614.188 696.117 614.26 696.35H626.16C628.826 695.013 631.298 693.321 633.51 691.32Z" fill="#3DB83A"/>
</g>
<g opacity="0.4">
<path opacity="0.4" d="M120.1 643.84C138.127 643.84 152.74 641.368 152.74 638.32C152.74 635.271 138.127 632.8 120.1 632.8C102.073 632.8 87.46 635.271 87.46 638.32C87.46 641.368 102.073 643.84 120.1 643.84Z" fill="#3DB83A"/>
<path opacity="0.4" d="M133.6 629.29C135.092 628.077 136.177 626.437 136.71 624.59C137.11 622.73 136.32 620.49 134.53 619.81C132.53 619.05 130.4 620.43 128.79 621.81C127.18 623.19 125.31 624.81 123.2 624.51C124.292 623.517 125.109 622.259 125.57 620.857C126.031 619.454 126.12 617.957 125.83 616.51C125.735 615.914 125.483 615.355 125.1 614.89C123.99 613.71 121.98 614.22 120.65 615.15C116.43 618.15 115.25 623.85 115.23 629.01C114.8 627.15 115.16 625.21 115.15 623.3C115.14 621.39 114.62 619.3 113.01 618.3C112.004 617.758 110.872 617.492 109.73 617.53C107.84 617.46 105.73 617.65 104.43 619.04C102.82 620.77 103.24 623.66 104.64 625.56C106.04 627.46 108.17 628.64 110.13 629.96C111.703 630.894 113.043 632.173 114.05 633.7C114.17 633.914 114.27 634.138 114.35 634.37H126.24C128.911 633.015 131.386 631.306 133.6 629.29Z" fill="#3DB83A"/>
</g>
<path d="M290.07 77.0498H238.98V128.14H290.07V77.0498Z" fill="#D6D8E0"/>
<path d="M434.81 80.7002H327.77V90.4302H434.81V80.7002Z" fill="#D6D8E0"/>
<path d="M504.14 97.7305H327.77V107.46H504.14V97.7305Z" fill="#D6D8E0"/>
<path d="M504.14 114.76H327.77V124.49H504.14V114.76Z" fill="#D6D8E0"/>
<path d="M290.46 170.71H239.37V221.8H290.46V170.71Z" fill="#D6D8E0"/>
<path d="M435.2 174.36H328.16V184.09H435.2V174.36Z" fill="#D6D8E0"/>
<path d="M504.53 191.39H328.16V201.12H504.53V191.39Z" fill="#D6D8E0"/>
<path d="M504.53 208.41H328.16V218.14H504.53V208.41Z" fill="#D6D8E0"/>
<path d="M290.85 264.37H239.76V315.46H290.85V264.37Z" fill="#D6D8E0"/>
<path d="M435.6 268.01H328.56V277.74H435.6V268.01Z" fill="#D6D8E0"/>
<path d="M504.93 285.04H328.56V294.77H504.93V285.04Z" fill="#D6D8E0"/>
<path d="M504.93 302.07H328.56V311.8H504.93V302.07Z" fill="#D6D8E0"/>
<path d="M291.24 358.02H240.15V409.11H291.24V358.02Z" fill="#D6D8E0"/>
<path d="M435.99 361.67H328.95V371.4H435.99V361.67Z" fill="#D6D8E0"/>
<path d="M505.32 378.7H328.95V388.43H505.32V378.7Z" fill="#D6D8E0"/>
<path d="M505.32 395.73H328.95V405.46H505.32V395.73Z" fill="#D6D8E0"/>
<path d="M291.64 451.68H240.55V502.77H291.64V451.68Z" fill="#D6D8E0"/>
<path d="M436.38 455.33H329.34V465.06H436.38V455.33Z" fill="#D6D8E0"/>
<path d="M505.71 472.36H329.34V482.09H505.71V472.36Z" fill="#D6D8E0"/>
<path d="M505.71 489.39H329.34V499.12H505.71V489.39Z" fill="#D6D8E0"/>
<path d="M292.03 545.34H240.94V596.43H292.03V545.34Z" fill="#D6D8E0"/>
<path d="M436.77 548.99H329.73V558.72H436.77V548.99Z" fill="#D6D8E0"/>
<path d="M506.1 566.02H329.73V575.75H506.1V566.02Z" fill="#D6D8E0"/>
<path d="M506.1 583.05H329.73V592.78H506.1V583.05Z" fill="#D6D8E0"/>
<path d="M292.42 639H241.33V690.09H292.42V639Z" fill="#D6D8E0"/>
<path d="M437.16 642.65H330.12V652.38H437.16V642.65Z" fill="#D6D8E0"/>
<path d="M506.49 659.68H330.12V669.41H506.49V659.68Z" fill="#D6D8E0"/>
<path d="M506.49 676.71H330.12V686.44H506.49V676.71Z" fill="#D6D8E0"/>
<path d="M590.46 231.1H155.01V339.35H590.46V231.1Z" fill="url(#paint1_linear)"/>
<path d="M589.24 233.54H157.44V336.93H589.24V233.54Z" fill="white"/>
<path d="M291.85 259.69H240.76V310.78H291.85V259.69Z" fill="#3DB83A"/>
<g opacity="0.5">
<path opacity="0.5" d="M436.6 263.34H329.56V273.07H436.6V263.34Z" fill="#3DB83A"/>
<path opacity="0.5" d="M505.93 280.37H329.56V290.1H505.93V280.37Z" fill="#3DB83A"/>
<path opacity="0.5" d="M505.93 297.399H329.56V307.129H505.93V297.399Z" fill="#3DB83A"/>
</g>
<path d="M310.18 325.59C307.46 322.9 302.94 322.01 299.67 323.99C297.13 325.52 295.73 328.37 294.45 331.06C292.58 335.06 289.84 338.8 289 343.12C286.69 355.03 277.21 364.28 273.41 375.79C272.05 379.9 271.41 384.31 269.26 388.06C268.244 389.702 267.108 391.266 265.86 392.74C260.94 398.946 256.589 405.583 252.86 412.57C250.7 412.99 248.78 414.82 246.94 416.25C244.582 418.083 241.852 419.376 238.94 420.04C237.768 420.178 236.645 420.589 235.66 421.24C234.28 422.39 234.09 424.46 232.97 425.85C232.156 426.761 231.124 427.449 229.97 427.85C229.97 427.5 229.92 427.15 229.91 426.79C229.86 424.94 229.83 423.08 229.83 421.22C233.055 417.423 234.82 412.601 234.809 407.619C234.798 402.637 233.011 397.823 229.77 394.04C229.849 391.144 230.234 388.265 230.92 385.45C231.27 384.08 231.22 382.4 230.11 381.51C229.56 381.08 228.85 380.92 228.26 380.51C227.429 379.807 226.748 378.943 226.26 377.97C224.779 375.871 222.598 374.369 220.109 373.733C217.621 373.097 214.986 373.369 212.68 374.5C209.07 376.4 206.88 380.2 203.68 382.78C202.04 384.1 200.15 385.09 198.51 386.42C195.228 389.284 192.895 393.079 191.82 397.3C190.769 401.505 190.159 405.808 190 410.14C189.829 411.439 189.88 412.758 190.15 414.04C190.474 415.113 190.97 416.127 191.62 417.04C194.668 421.999 198.951 426.083 204.05 428.89C204.07 429.146 204.07 429.404 204.05 429.66C204.05 430.06 203.92 430.45 203.83 430.85L203.25 430.69C201.11 430.21 198.8 430.27 196.88 429.2C193.6 427.36 192.61 422.87 189.47 420.81C189.203 420.637 188.922 420.486 188.63 420.36C188.408 414.672 187.323 409.051 185.41 403.69C184.49 401.13 183.36 398.52 183.5 395.79C183.62 393.26 184.83 390.93 185.91 388.64C189.68 380.74 192.32 372.36 194.91 364.01C196.57 358.763 198.237 353.513 199.91 348.26C201.539 347.051 203.013 345.647 204.3 344.08C206.969 340.973 208.73 337.192 209.39 333.15C209.707 331.133 209.622 329.073 209.14 327.089C208.658 325.105 207.788 323.236 206.58 321.59C206.047 320.803 205.352 320.139 204.541 319.643C203.73 319.146 202.823 318.828 201.88 318.71C201.051 318.728 200.234 318.915 199.479 319.258C198.725 319.602 198.048 320.096 197.49 320.71C195.832 322.601 194.556 324.795 193.73 327.17C192.09 331.04 190.43 335.06 190.59 339.26C190.72 342.74 192.02 346.63 189.99 349.46C183.34 358.73 178.32 369.39 173.05 379.53C171.718 381.952 170.575 384.472 169.63 387.07C168.356 391.283 167.752 395.67 167.84 400.07C167.79 408.32 168.92 416.53 170.04 424.71C170.55 428.4 171.2 432.32 172.95 435.51C171.804 439.463 171.201 443.554 171.16 447.67C171.114 448.62 171.263 449.57 171.6 450.46C172.189 451.495 172.934 452.433 173.81 453.24C174.982 454.572 175.857 456.139 176.374 457.836C176.891 459.533 177.04 461.321 176.81 463.08C176.517 466.393 176.818 469.733 177.7 472.94C179.7 481.82 181.7 490.69 183.3 499.64C183.68 501.305 183.808 503.017 183.68 504.72C183.37 507.14 182.03 509.44 182.32 511.87C182.607 512.995 182.82 514.137 182.96 515.29C182.895 516.169 182.692 517.033 182.36 517.85C180.08 524.48 173.95 539.68 174.02 546.7L175.62 546.32C174.01 555.43 170.24 564.14 168.26 573.22C166.887 579.836 166.263 586.585 166.4 593.34C166.532 596.374 166.478 599.413 166.24 602.44C165.93 605.13 165.24 607.76 164.86 610.44C164.43 614.033 164.269 617.653 164.38 621.27C164.276 626.954 164.61 632.637 165.38 638.27C166.91 647.87 164.23 657.41 163.5 667.1C163.13 673.879 162.362 680.631 161.2 687.32C160.65 690.14 159.96 692.94 159.58 695.79C158.46 704.25 160.09 712.97 158.33 721.32C157.5 725.23 156.02 729.62 158.2 732.96C158.89 734.01 159.88 734.83 160.63 735.84C161.041 736.318 161.321 736.895 161.444 737.513C161.567 738.131 161.527 738.771 161.33 739.37C160.9 740.29 159.9 740.89 159.65 741.87C159.25 743.41 160.86 744.67 162.3 745.33L162.71 745.49C162.616 746.017 162.637 746.558 162.772 747.075C162.906 747.593 163.151 748.076 163.49 748.49C164.346 749.297 165.408 749.851 166.56 750.09L185.44 755.81C189.65 757.09 194.23 758.35 198.44 757.31C198.535 757.909 198.795 758.47 199.19 758.93C200.046 759.737 201.108 760.291 202.26 760.53L221 766.21C225.82 767.67 231.11 769.11 235.74 767.13C237.067 766.584 238.231 765.706 239.12 764.58C239.855 763.499 240.344 762.269 240.551 760.978C240.759 759.688 240.68 758.367 240.32 757.11C240.086 755.831 239.448 754.66 238.5 753.77C237.218 752.878 235.702 752.381 234.14 752.34C232.807 752.3 231.501 751.958 230.32 751.34C229.964 751.108 229.666 750.796 229.45 750.43C230.53 749.363 231.577 748.257 232.59 747.11C231.77 746.83 231.48 745.65 231.4 744.79C230.21 732.05 235.01 719.6 236.83 706.94C237.749 700.588 237.91 694.15 237.31 687.76C237.09 685.35 236.76 682.95 236.66 680.53C236.19 667.93 242.21 655.81 242 643.2C241.9 637.3 245 631.48 246.51 625.77C247.83 620.71 247.87 615.41 247.9 610.17L248.14 568.91C248.14 563.33 248.14 557.62 246.36 552.35C245.462 549.419 245.216 546.326 245.64 543.29C250.73 541.04 255.55 537.71 260.99 538.29C262.44 534.44 260.72 521.61 259.36 517.72C254.013 502.415 252.976 485.935 256.36 470.08C257.59 464.39 255.9 458.34 257.27 452.67C257.522 451.339 258.027 450.069 258.76 448.93C259.131 448.362 259.641 447.898 260.241 447.581C260.841 447.265 261.512 447.106 262.19 447.12C262.19 443.65 262.12 440.12 261.89 436.6C264.099 434.797 265.983 432.629 267.46 430.19C270.46 425.19 272.17 419.56 274.24 414.12C277.91 404.52 282.92 395.51 287.13 386.12C291.34 376.73 291.75 366.46 295.13 356.74C296.992 351.386 300.841 346.954 305.88 344.36C307.88 343.36 310.01 342.64 311.46 341C312.558 339.633 313.232 337.975 313.4 336.23C313.712 334.328 313.584 332.38 313.026 330.536C312.468 328.692 311.494 327 310.18 325.59ZM193.18 738.72C193.59 738.27 193.99 737.82 194.37 737.33C193.11 737.13 191.57 736.21 191.54 734.93C191.63 733.647 191.906 732.384 192.36 731.18C192.952 729.009 193.047 726.733 192.64 724.52C192.36 722.97 191.84 721.52 191.52 719.94C191.215 718.227 191.015 716.497 190.92 714.76C190.381 708.525 189.16 702.369 187.28 696.4C185.47 690.61 187.95 684.75 188.59 678.72C188.9 675.86 188.76 672.91 189.76 670.22C190.35 668.62 191.32 667.22 191.91 665.6C193.28 661.89 192.47 657.76 191.63 653.89C197.55 643.16 199.51 630.36 201.74 618.28C202.993 611.5 204.247 604.723 205.5 597.95C206.05 594.95 206.66 591.79 208.5 589.37C210.448 598.345 211.214 607.536 210.78 616.71C210.55 619.373 210.583 622.053 210.88 624.71C211.34 627.62 212.55 630.37 213.25 633.23C214.81 639.54 213.9 646.17 214.25 652.66C214.38 655.28 214.72 657.9 214.83 660.52C215.32 672.11 211.44 683.38 207.61 694.33C205.26 701.04 204.74 708.67 203.61 715.7C202.55 722.43 201.5 729.17 200.96 735.96C200.8 738.03 200.67 740.16 200.42 742.26C199.777 742.118 199.126 742.014 198.47 741.95C197.137 741.91 195.831 741.568 194.65 740.95C193.943 740.375 193.43 739.596 193.18 738.72Z" fill="url(#paint2_linear)"/>
<path d="M234.16 752.44C235.72 752.484 237.233 752.977 238.52 753.86C239.465 754.744 240.103 755.907 240.34 757.18C240.699 758.43 240.778 759.745 240.57 761.029C240.363 762.313 239.874 763.536 239.14 764.61C238.249 765.727 237.085 766.595 235.76 767.13C231.13 769.13 225.84 767.68 221.02 766.23L202.14 760.54C200.989 760.304 199.926 759.754 199.07 758.95C198.551 758.251 198.264 757.408 198.25 756.538C198.236 755.668 198.494 754.815 198.99 754.1C200.005 752.69 201.389 751.586 202.99 750.91C208.87 748.05 215.49 747.39 221.99 747.27C224.39 747.22 226.75 746.7 228.38 748.55C229.24 749.55 229.09 750.61 230.38 751.46C231.549 752.07 232.842 752.405 234.16 752.44Z" fill="#3F3D56"/>
<path d="M198.49 742.05C200.05 742.085 201.565 742.575 202.85 743.46C203.79 744.349 204.426 745.51 204.67 746.78C205.03 748.03 205.109 749.345 204.901 750.629C204.694 751.914 204.205 753.136 203.47 754.21C202.58 755.33 201.415 756.201 200.09 756.74C195.46 758.74 190.17 757.28 185.35 755.83L166.47 750.14C165.318 749.909 164.254 749.358 163.4 748.55C162.881 747.851 162.594 747.008 162.58 746.138C162.566 745.268 162.824 744.415 163.32 743.7C164.333 742.288 165.718 741.183 167.32 740.51C173.2 737.65 179.81 736.99 186.27 736.87C188.66 736.87 191.03 736.3 192.66 738.15C193.52 739.15 193.37 740.22 194.66 741.06C195.845 741.676 197.155 742.015 198.49 742.05Z" fill="#3F3D56"/>
<path d="M214.89 537.16C203.767 536.042 192.578 535.728 181.41 536.22C180.673 536.21 179.939 536.325 179.24 536.56C176.78 537.56 176.4 540.78 176.16 543.42C175.22 554.09 170.51 564.04 168.16 574.51C166.785 581.084 166.161 587.794 166.3 594.51C166.431 597.51 166.377 600.516 166.14 603.51C165.83 606.19 165.14 608.8 164.76 611.51C164.33 615.079 164.169 618.676 164.28 622.27C164.177 627.91 164.511 633.551 165.28 639.14C166.81 648.68 164.13 658.14 163.4 667.78C163.029 674.516 162.261 681.224 161.1 687.87C160.55 690.67 159.86 693.45 159.48 696.28C158.36 704.69 159.99 713.36 158.23 721.65C157.4 725.53 155.92 729.89 158.1 733.21C158.79 734.26 159.78 735.07 160.53 736.07C160.94 736.544 161.22 737.117 161.343 737.732C161.465 738.348 161.427 738.984 161.23 739.58C160.8 740.49 159.8 741.09 159.55 742.06C159.15 743.59 160.76 744.85 162.2 745.5C173.05 750.39 187.04 746.94 194.36 737.55C193.1 737.35 191.56 736.44 191.53 735.17C191.62 733.893 191.896 732.636 192.35 731.44C192.942 729.282 193.038 727.019 192.63 724.82C192.35 723.29 191.83 721.82 191.51 720.27C191.205 718.57 191.004 716.854 190.91 715.13C190.371 708.934 189.15 702.817 187.27 696.89C185.46 691.14 187.94 685.32 188.58 679.32C188.89 676.49 188.75 673.55 189.75 670.88C190.34 669.29 191.31 667.88 191.9 666.29C193.27 662.6 192.46 658.51 191.62 654.66C197.54 643.99 199.5 631.28 201.73 619.28C202.983 612.546 204.237 605.813 205.49 599.08C206.04 596.08 206.65 592.97 208.49 590.56C210.438 599.477 211.205 608.612 210.77 617.73C210.543 620.356 210.577 622.999 210.87 625.62C211.33 628.51 212.54 631.24 213.24 634.09C214.8 640.35 213.89 646.94 214.24 653.39C214.37 655.99 214.71 658.59 214.82 661.2C215.31 672.71 211.43 683.91 207.6 694.78C205.25 701.45 204.73 709.03 203.6 716.01C202.54 722.7 201.49 729.39 200.95 736.14C200.46 742.34 200.25 749.05 196.39 753.92C199.91 756.21 203.56 758.54 207.68 759.33C212.495 760.081 217.421 759.13 221.61 756.64C225.767 754.147 229.484 750.984 232.61 747.28C231.79 747 231.5 745.82 231.42 744.97C230.23 732.32 235.03 719.97 236.85 707.37C237.769 701.058 237.93 694.659 237.33 688.31C237.11 685.92 236.78 683.54 236.68 681.14C236.21 668.62 242.23 656.57 242.02 644.05C241.92 638.19 245.02 632.4 246.53 626.73C247.85 621.73 247.89 616.44 247.92 611.24L248.16 570.24C248.16 564.69 248.16 559.02 246.38 553.78C244.18 547.49 246.69 540.25 247.07 533.6C236.68 536.882 225.746 538.091 214.89 537.16Z" fill="#3F3D56"/>
<path d="M250.55 419.37C254.753 410.774 259.887 402.666 265.86 395.19C267.105 393.728 268.241 392.178 269.26 390.55C271.41 386.83 272.05 382.44 273.41 378.36C277.21 366.92 286.69 357.73 289 345.9C289.84 341.61 292.58 337.9 294.45 333.9C295.73 331.22 297.13 328.4 299.67 326.9C302.94 324.9 307.46 325.83 310.18 328.5C311.489 329.894 312.459 331.571 313.016 333.401C313.572 335.23 313.7 337.163 313.39 339.05C313.227 340.787 312.552 342.437 311.45 343.79C310 345.42 307.83 346.16 305.87 347.14C300.836 349.698 296.985 354.101 295.12 359.43C291.78 369.09 291.36 379.31 287.12 388.62C282.88 397.93 277.9 406.88 274.23 416.41C272.16 421.82 270.49 427.41 267.45 432.41C264.41 437.41 259.63 441.6 253.89 442.35C253.898 438.737 253.331 435.145 252.21 431.71C251 427.74 248.73 423.05 250.55 419.37Z" fill="#A0616A"/>
<path d="M188.63 426.83C188.885 419.76 187.786 412.706 185.39 406.05C184.47 403.5 183.34 400.91 183.48 398.2C183.6 395.69 184.81 393.37 185.89 391.1C189.66 383.25 192.3 374.92 194.89 366.62L199.89 350.98C201.516 349.779 202.99 348.386 204.28 346.83C206.944 343.747 208.705 339.989 209.37 335.97C209.686 333.964 209.601 331.915 209.119 329.943C208.636 327.97 207.767 326.113 206.56 324.48C206.025 323.697 205.329 323.037 204.519 322.546C203.708 322.054 202.801 321.742 201.86 321.63C201.03 321.644 200.212 321.829 199.457 322.173C198.702 322.517 198.025 323.013 197.47 323.63C195.813 325.506 194.536 327.687 193.71 330.05C192.07 333.89 190.41 337.89 190.57 342.05C190.7 345.51 192 349.37 189.97 352.18C183.32 361.39 178.3 371.98 173.03 382.05C171.698 384.454 170.555 386.959 169.61 389.54C168.334 393.732 167.73 398.099 167.82 402.48C167.77 410.68 168.9 418.83 170.02 426.96C170.72 432.04 171.66 437.58 175.51 440.96C179.52 435.87 183.54 430.85 188.63 426.83Z" fill="#A0616A"/>
<path d="M214.08 430.74C225.54 430.74 234.83 421.45 234.83 409.99C234.83 398.53 225.54 389.24 214.08 389.24C202.62 389.24 193.33 398.53 193.33 409.99C193.33 421.45 202.62 430.74 214.08 430.74Z" fill="#A0616A"/>
<path d="M204 431.84C203.5 435.6 201.49 438.95 199.53 442.19C198.34 444.19 196.84 446.32 194.53 446.54C200.537 449.699 206.849 452.239 213.37 454.12C215.591 454.864 217.918 455.239 220.26 455.23C222.242 455.082 224.182 454.584 225.99 453.76C229.946 452.026 233.455 449.414 236.252 446.122C239.048 442.83 241.059 438.944 242.13 434.76C239.55 434.829 236.97 434.631 234.43 434.17C233.01 433.91 231.48 433.49 230.65 432.32C230.074 431.301 229.803 430.138 229.87 428.97C229.77 425.51 229.77 422.05 229.87 418.59C224.772 418.261 219.658 418.889 214.79 420.44C212.79 421.09 210.79 421.88 208.74 422.39C207.48 422.7 204.01 422.39 203.08 423.12C201.67 424.23 204.37 429.29 204 431.84Z" fill="#A0616A"/>
<path d="M213.15 444.45C212.919 441.724 211.837 439.139 210.057 437.061C208.277 434.983 205.889 433.517 203.23 432.87C201.09 432.4 198.78 432.45 196.86 431.39C193.58 429.56 192.59 425.1 189.45 423.05C186.31 421 181.83 422.14 179.09 424.74C176.35 427.34 174.96 431.02 173.84 434.62C172.163 439.5 171.256 444.611 171.15 449.77C171.104 450.717 171.253 451.664 171.59 452.55C172.181 453.581 172.927 454.515 173.8 455.32C174.971 456.637 175.845 458.19 176.362 459.874C176.88 461.558 177.029 463.333 176.8 465.08C176.507 468.377 176.808 471.7 177.69 474.89C179.69 483.7 181.69 492.52 183.29 501.41C183.665 503.049 183.793 504.734 183.67 506.41C183.36 508.81 182.02 511.1 182.31 513.5C182.596 514.622 182.81 515.761 182.95 516.91C182.885 517.78 182.682 518.634 182.35 519.44C180.07 526.04 173.94 541.14 174.01 548.11C184.66 545.38 200.36 544.77 211.35 544.73C214.379 544.688 217.407 544.822 220.42 545.13C227.65 545.9 235.05 548.01 242.06 546.06C248.56 544.25 254.33 539.06 261.06 539.72C262.51 535.89 260.79 523.14 259.43 519.28C254.084 504.082 253.046 487.702 256.43 471.95C257.66 466.29 255.97 460.29 257.34 454.66C257.59 453.335 258.096 452.071 258.83 450.94C259.202 450.374 259.713 449.912 260.313 449.597C260.913 449.283 261.583 449.125 262.26 449.14C262.385 440.1 261.547 431.073 259.76 422.21C259.09 419.06 257.7 415.34 254.53 414.8C251.67 414.32 249.26 416.73 246.97 418.51C244.606 420.326 241.877 421.609 238.97 422.27C237.799 422.405 236.675 422.812 235.69 423.46C234.31 424.6 234.12 426.66 233 428.05C231 430.54 226.53 430.32 225.11 433.19C224.79 434.046 224.536 434.926 224.35 435.82C223.679 437.521 222.538 438.995 221.06 440.07C218.825 442.16 216.107 443.665 213.15 444.45Z" fill="#3DB83A"/>
<path d="M230.94 387.93C231.29 386.56 231.24 384.93 230.13 384.01C229.58 383.58 228.87 383.42 228.28 383.01C227.449 382.311 226.768 381.45 226.28 380.48C224.784 378.39 222.596 376.899 220.104 376.271C217.612 375.643 214.978 375.919 212.67 377.05C209.06 378.94 206.87 382.72 203.67 385.28C202.03 386.6 200.14 387.58 198.5 388.89C195.222 391.732 192.888 395.507 191.81 399.71C190.761 403.891 190.155 408.171 190 412.48C189.829 413.772 189.88 415.084 190.15 416.36C190.477 417.416 190.973 418.413 191.62 419.31C194.91 424.31 199.27 428.86 204.72 431.43C210.17 434 216.8 434.43 222.18 431.74C222.719 431.513 223.184 431.139 223.52 430.66C223.828 429.93 223.898 429.122 223.72 428.35C223.436 425.296 224.044 422.225 225.47 419.51C226.47 417.51 227.96 415.79 228.77 413.71C229.505 411.391 229.823 408.96 229.71 406.53C229.79 400.26 229.36 393.99 230.94 387.93Z" fill="#2D293D"/>
<path d="M291.64 260.3H240.55V311.39H291.64V260.3Z" fill="#3DB83A"/>
<path d="M273 303.82C272.26 305.247 271.032 306.362 269.54 306.96C268.658 307.282 267.729 307.458 266.79 307.48C265.775 307.554 264.756 307.429 263.79 307.11C262.503 306.604 261.399 305.722 260.62 304.58C259.851 303.438 259.232 302.201 258.78 300.9C258.476 300.251 258.349 299.534 258.41 298.82C258.801 298.772 259.179 298.648 259.523 298.454C259.866 298.26 260.167 298 260.41 297.69C260.554 297.377 260.633 297.039 260.641 296.695C260.65 296.351 260.588 296.009 260.46 295.69C260.4 295.49 260.34 295.3 260.27 295.12C260.12 294.68 259.6 293.85 259.96 293.48C260.32 293.11 261.16 293.12 261.49 292.97C262.468 292.385 263.512 291.919 264.6 291.58C265.586 291.448 266.589 291.513 267.55 291.77C267.681 291.791 267.807 291.839 267.92 291.91C268.046 292.015 268.14 292.154 268.19 292.31C268.47 292.99 268.63 293.74 268.85 294.44C269.042 295.174 269.421 295.846 269.95 296.39C270.407 296.778 270.924 297.088 271.48 297.31L272.82 297.92C273.055 298.013 273.269 298.153 273.45 298.33C273.621 298.572 273.725 298.855 273.75 299.15C273.998 300.747 273.736 302.381 273 303.82Z" fill="#A0616A"/>
<path opacity="0.1" d="M268.84 294.47C267.776 295.575 266.375 296.297 264.858 296.524C263.34 296.75 261.79 296.467 260.45 295.72C260.39 295.52 260.33 295.33 260.26 295.15C260.11 294.71 259.59 293.88 259.95 293.51C260.31 293.14 261.15 293.15 261.48 293C262.458 292.416 263.502 291.949 264.59 291.61C265.576 291.479 266.579 291.543 267.54 291.8C267.671 291.822 267.797 291.869 267.91 291.94C268.036 292.045 268.13 292.184 268.18 292.34C268.46 293.05 268.62 293.77 268.84 294.47Z" fill="black"/>
<path d="M263.84 296.3C267.673 296.3 270.78 293.193 270.78 289.36C270.78 285.527 267.673 282.42 263.84 282.42C260.007 282.42 256.9 285.527 256.9 289.36C256.9 293.193 260.007 296.3 263.84 296.3Z" fill="#A0616A"/>
<path d="M284.89 311.38H252.23C251.23 309.15 250.33 306.91 249.32 304.68C249.428 304.15 249.628 303.642 249.91 303.18C250.055 302.955 250.252 302.768 250.486 302.638C250.72 302.507 250.982 302.436 251.25 302.43C251.54 302.43 251.87 302.54 252.08 302.33C252.29 302.12 252.22 301.95 252.37 301.81C252.52 301.67 252.88 301.67 253.16 301.69C253.46 301.7 253.759 301.634 254.027 301.5C254.296 301.366 254.528 301.166 254.7 300.92C254.807 300.734 254.938 300.562 255.09 300.41C255.353 300.283 255.638 300.208 255.93 300.19C256.74 300.01 257.22 299.19 257.83 298.68C257.977 298.515 258.168 298.396 258.381 298.337C258.594 298.278 258.82 298.283 259.03 298.35C259.128 298.401 259.213 298.472 259.28 298.56C259.444 298.812 259.556 299.094 259.61 299.39C259.972 301.051 260.893 302.537 262.22 303.6C262.925 304.133 263.74 304.501 264.606 304.678C265.471 304.855 266.366 304.836 267.223 304.622C268.08 304.408 268.879 304.005 269.56 303.442C270.241 302.88 270.788 302.172 271.16 301.37C271.643 300.162 271.921 298.881 271.98 297.58C271.98 297.51 271.98 297.47 271.98 297.41C272.387 297.309 272.811 297.299 273.222 297.38C273.634 297.462 274.022 297.632 274.36 297.88C275.024 298.389 275.734 298.834 276.48 299.21C277.37 299.56 278.48 299.56 279.09 300.21C279.35 300.47 279.53 300.83 279.86 300.99C280.065 301.071 280.281 301.121 280.5 301.14C281.059 301.291 281.575 301.568 282.01 301.949C282.445 302.33 282.787 302.806 283.01 303.34C283.734 304.945 284.206 306.652 284.41 308.4L284.89 311.38Z" fill="#F86D70"/>
<path d="M259.05 278.1C258.567 278.491 258.157 278.966 257.84 279.5C257.244 280.483 256.413 281.301 255.42 281.88C255.004 282.026 254.625 282.261 254.31 282.57C254.155 282.805 254.056 283.072 254.02 283.35C253.817 284.32 253.713 285.309 253.71 286.3C253.673 286.799 253.755 287.299 253.95 287.76C254.15 288.18 254.53 288.54 254.6 289C254.615 289.364 254.574 289.728 254.48 290.08C254.433 290.265 254.444 290.459 254.51 290.638C254.576 290.816 254.694 290.971 254.85 291.08C255.031 291.145 255.219 291.188 255.41 291.21C256.41 291.43 256.75 292.61 256.9 293.58C257.24 293.58 257.39 293.17 257.47 292.85L258.47 288.2C258.59 287.7 258.77 287.11 259.28 286.94C259.629 286.865 259.991 286.865 260.34 286.94C261.72 287.06 262.88 285.99 264.23 285.69C264.665 285.609 265.108 285.582 265.55 285.61C266.61 285.61 267.85 286.1 268.08 287.09C268.08 287.25 268.14 287.45 268.29 287.53C268.444 287.575 268.607 287.575 268.76 287.53C269.43 287.46 269.83 288.22 270.03 288.84L270.73 291.11C270.84 291.45 271.02 291.86 271.39 291.9C271.559 291.899 271.723 291.837 271.849 291.725C271.976 291.612 272.058 291.458 272.08 291.29C272.095 290.951 272.048 290.612 271.94 290.29C271.61 288.81 272.12 287.29 272.43 285.8C272.74 284.31 272.79 282.6 271.75 281.45C271.37 281.04 270.87 280.73 270.52 280.29C270.17 279.85 270.01 279.38 269.67 278.97C268.312 277.779 266.617 277.038 264.82 276.85C262.815 276.673 260.802 277.109 259.05 278.1Z" fill="#3F3D56"/>
<g opacity="0.1">
<path opacity="0.1" d="M271.43 290.82C271.06 290.82 270.88 290.37 270.77 290.03L270.07 287.76C269.87 287.14 269.47 286.38 268.8 286.44C268.647 286.485 268.483 286.485 268.33 286.44C268.18 286.36 268.16 286.17 268.12 286C267.89 285 266.65 284.57 265.59 284.52C265.148 284.49 264.704 284.52 264.27 284.61C262.92 284.9 261.76 285.97 260.38 285.85C260.03 285.785 259.67 285.785 259.32 285.85C258.81 286.03 258.63 286.61 258.51 287.12C258.16 288.67 257.82 290.22 257.51 291.76C257.43 292.08 257.28 292.47 256.94 292.49C256.79 291.49 256.45 290.34 255.45 290.12C255.258 290.103 255.07 290.059 254.89 289.99C254.757 289.918 254.654 289.801 254.6 289.66C254.6 289.8 254.54 289.95 254.52 290.09C254.473 290.275 254.483 290.469 254.549 290.648C254.616 290.826 254.734 290.981 254.89 291.09C255.071 291.154 255.259 291.198 255.45 291.22C256.45 291.44 256.79 292.62 256.94 293.59C257.28 293.59 257.43 293.18 257.51 292.86C257.86 291.31 258.2 289.76 258.51 288.21C258.63 287.71 258.81 287.12 259.32 286.95C259.669 286.875 260.031 286.875 260.38 286.95C261.76 287.07 262.92 286 264.27 285.7C264.705 285.618 265.148 285.592 265.59 285.62C266.65 285.62 267.89 286.11 268.12 287.1C268.12 287.26 268.18 287.46 268.33 287.54C268.483 287.585 268.647 287.585 268.8 287.54C269.47 287.47 269.87 288.23 270.07 288.85L270.77 291.12C270.88 291.46 271.06 291.87 271.43 291.91C271.599 291.909 271.763 291.847 271.889 291.735C272.016 291.622 272.098 291.468 272.12 291.3C272.141 291.029 272.107 290.757 272.02 290.5C271.963 290.604 271.877 290.69 271.772 290.747C271.667 290.804 271.549 290.829 271.43 290.82Z" fill="black"/>
<path opacity="0.1" d="M254.6 287.941C254.53 287.481 254.15 287.121 253.95 286.701C253.819 286.417 253.741 286.112 253.72 285.801C253.72 285.971 253.72 286.131 253.72 286.301C253.683 286.8 253.765 287.3 253.96 287.761C254.12 288.101 254.4 288.401 254.54 288.761C254.611 288.494 254.631 288.215 254.6 287.941Z" fill="black"/>
<path opacity="0.1" d="M272.47 284.73C272.073 286.026 271.88 287.375 271.9 288.73C272.03 287.746 272.22 286.771 272.47 285.81C272.636 285.076 272.694 284.321 272.64 283.57C272.608 283.96 272.552 284.348 272.47 284.73Z" fill="black"/>
</g>
<path d="M254.84 311.38H247.05C247.394 309.282 248.009 307.239 248.88 305.3C248.948 305.1 249.061 304.919 249.21 304.77C249.242 304.735 249.279 304.704 249.32 304.68C249.55 304.5 249.87 304.43 250.12 304.26C250.37 304.09 250.4 303.91 250.63 303.84C251.496 303.819 252.357 303.962 253.17 304.26C253.4 304.286 253.626 304.343 253.84 304.43C254.347 304.711 254.727 305.177 254.9 305.73C255.56 307.52 255.06 309.46 254.84 311.38Z" fill="#F86D70"/>
</g>
<defs>
<linearGradient id="paint0_linear" x1="373.13" y1="741.97" x2="373.13" y2="-0.000213629" gradientUnits="userSpaceOnUse">
<stop stop-color="#808080" stop-opacity="0.25"/>
<stop offset="0.54" stop-color="#808080" stop-opacity="0.12"/>
<stop offset="1" stop-color="#808080" stop-opacity="0.1"/>
</linearGradient>
<linearGradient id="paint1_linear" x1="162465" y1="36966.8" x2="162465" y2="25247.7" gradientUnits="userSpaceOnUse">
<stop stop-color="#808080" stop-opacity="0.25"/>
<stop offset="0.54" stop-color="#808080" stop-opacity="0.12"/>
<stop offset="1" stop-color="#808080" stop-opacity="0.1"/>
</linearGradient>
<linearGradient id="paint2_linear" x1="65415.6" y1="274149" x2="89916.1" y2="274149" gradientUnits="userSpaceOnUse">
<stop stop-color="#808080" stop-opacity="0.25"/>
<stop offset="0.54" stop-color="#808080" stop-opacity="0.12"/>
<stop offset="1" stop-color="#808080" stop-opacity="0.1"/>
</linearGradient>
<clipPath id="clip0">
<rect width="680" height="768.1" fill="white"/>
</clipPath>
</defs>
</svg>
