<svg width="360" height="40" viewBox="0 0 360 40" fill="none" xmlns="http://www.w3.org/2000/svg">
<path d="M11.168 31.384C9.84533 31.384 8.59733 31.16 7.424 30.712C6.25067 30.2427 5.216 29.56 4.32 28.664C3.44533 27.768 2.752 26.6587 2.24 25.336C1.728 23.992 1.472 22.4453 1.472 20.696C1.472 18.968 1.73867 17.432 2.272 16.088C2.80533 14.7227 3.52 13.5707 4.416 12.632C5.312 11.6933 6.35733 10.9787 7.552 10.488C8.74667 9.99733 10.0053 9.752 11.328 9.752C12.672 9.752 13.8773 10.0293 14.944 10.584C16.0107 11.1173 16.896 11.7467 17.6 12.472L15.104 15.48C14.5707 14.9893 14.0053 14.5947 13.408 14.296C12.832 13.976 12.1707 13.816 11.424 13.816C10.72 13.816 10.048 13.976 9.408 14.296C8.78933 14.5947 8.24533 15.032 7.776 15.608C7.328 16.184 6.96533 16.888 6.688 17.72C6.432 18.552 6.304 19.4907 6.304 20.536C6.304 22.6907 6.76267 24.3653 7.68 25.56C8.59733 26.7333 9.824 27.32 11.36 27.32C12.2133 27.32 12.9707 27.1387 13.632 26.776C14.3147 26.392 14.912 25.9227 15.424 25.368L17.92 28.312C16.1707 30.36 13.92 31.384 11.168 31.384ZM20.705 31V8.568H25.409V14.072L25.185 16.92C25.7823 16.3867 26.4757 15.896 27.265 15.448C28.0543 14.9787 28.993 14.744 30.081 14.744C31.809 14.744 33.057 15.3093 33.825 16.44C34.6143 17.5707 35.009 19.1387 35.009 21.144V31H30.305V21.752C30.305 20.6 30.145 19.8107 29.825 19.384C29.5263 18.9573 29.0357 18.744 28.353 18.744C27.7557 18.744 27.2437 18.8827 26.817 19.16C26.3903 19.416 25.921 19.7893 25.409 20.28V31H20.705ZM42.9863 31.384C42.2609 31.384 41.5996 31.256 41.0023 31C40.4263 30.7653 39.9356 30.4347 39.5303 30.008C39.1249 29.56 38.8049 29.048 38.5703 28.472C38.3569 27.896 38.2503 27.2667 38.2503 26.584C38.2503 24.92 38.9543 23.6187 40.3623 22.68C41.7703 21.7413 44.0423 21.112 47.1783 20.792C47.1356 20.088 46.9223 19.5333 46.5383 19.128C46.1756 18.7013 45.5569 18.488 44.6823 18.488C43.9996 18.488 43.3169 18.616 42.6343 18.872C41.9729 19.128 41.2583 19.48 40.4903 19.928L38.7943 16.824C39.8183 16.2053 40.8849 15.704 41.9943 15.32C43.1249 14.936 44.3196 14.744 45.5783 14.744C47.6263 14.744 49.1836 15.3307 50.2503 16.504C51.3383 17.656 51.8823 19.4587 51.8823 21.912V31H48.0423L47.7223 29.368H47.5943C46.9116 29.9653 46.1969 30.456 45.4503 30.84C44.7036 31.2027 43.8823 31.384 42.9863 31.384ZM44.5863 27.736C45.1196 27.736 45.5783 27.6187 45.9623 27.384C46.3463 27.1493 46.7516 26.8187 47.1783 26.392V23.608C45.5143 23.8427 44.3623 24.184 43.7223 24.632C43.0823 25.08 42.7623 25.6133 42.7623 26.232C42.7623 26.744 42.9223 27.128 43.2423 27.384C43.5836 27.6187 44.0316 27.736 44.5863 27.736ZM61.4108 31.384C60.4294 31.384 59.5868 31.2347 58.8828 30.936C58.2001 30.6373 57.6348 30.2213 57.1868 29.688C56.7601 29.1547 56.4401 28.5147 56.2268 27.768C56.0348 27 55.9388 26.1573 55.9388 25.24V18.808H53.7628V15.32L56.1948 15.128L56.7388 10.904H60.6428V15.128H64.4508V18.808H60.6428V25.176C60.6428 26.072 60.8241 26.7227 61.1868 27.128C61.5708 27.512 62.0721 27.704 62.6908 27.704C62.9468 27.704 63.2028 27.672 63.4588 27.608C63.7361 27.544 63.9814 27.4693 64.1948 27.384L64.9308 30.808C64.5041 30.936 64.0028 31.064 63.4268 31.192C62.8508 31.32 62.1788 31.384 61.4108 31.384ZM71.9083 31.384C70.8629 31.384 69.7856 31.1813 68.6763 30.776C67.5883 30.3707 66.6389 29.8373 65.8283 29.176L67.9403 26.232C68.6656 26.7867 69.3589 27.2027 70.0203 27.48C70.6816 27.7573 71.3536 27.896 72.0363 27.896C72.7403 27.896 73.2523 27.7787 73.5723 27.544C73.8923 27.3093 74.0523 26.9787 74.0523 26.552C74.0523 26.296 73.9563 26.072 73.7643 25.88C73.5936 25.6667 73.3483 25.4747 73.0283 25.304C72.7296 25.1333 72.3883 24.984 72.0043 24.856C71.6203 24.7067 71.2256 24.5467 70.8203 24.376C70.3296 24.184 69.8389 23.96 69.3483 23.704C68.8576 23.448 68.4096 23.1387 68.0043 22.776C67.5989 22.392 67.2683 21.9547 67.0123 21.464C66.7563 20.952 66.6283 20.3653 66.6283 19.704C66.6283 18.9787 66.7669 18.3067 67.0443 17.688C67.3429 17.0693 67.7589 16.5467 68.2923 16.12C68.8256 15.6933 69.4656 15.3627 70.2123 15.128C70.9589 14.872 71.7909 14.744 72.7083 14.744C73.9243 14.744 74.9909 14.9573 75.9083 15.384C76.8256 15.7893 77.6256 16.248 78.3083 16.76L76.1963 19.576C75.6203 19.1493 75.0549 18.8187 74.5003 18.584C73.9456 18.3493 73.3909 18.232 72.8363 18.232C71.6416 18.232 71.0443 18.648 71.0443 19.48C71.0443 19.736 71.1296 19.96 71.3003 20.152C71.4709 20.3227 71.6949 20.4827 71.9723 20.632C72.2709 20.7813 72.6016 20.9307 72.9643 21.08C73.3483 21.208 73.7429 21.3467 74.1483 21.496C74.6603 21.688 75.1616 21.912 75.6523 22.168C76.1643 22.4027 76.6229 22.7013 77.0283 23.064C77.4549 23.4267 77.7963 23.8747 78.0523 24.408C78.3083 24.92 78.4363 25.5387 78.4363 26.264C78.4363 26.9893 78.2976 27.6613 78.0203 28.28C77.7429 28.8987 77.3269 29.4427 76.7723 29.912C76.2176 30.36 75.5349 30.7227 74.7243 31C73.9136 31.256 72.9749 31.384 71.9083 31.384Z" fill="#3A3A3A"/>
<path d="M356.71 27.29L353.31 23.9C354.407 22.5025 355.002 20.7767 355 19C355 17.4178 354.531 15.871 353.652 14.5554C352.773 13.2398 351.523 12.2145 350.061 11.609C348.6 11.0035 346.991 10.845 345.439 11.1537C343.887 11.4624 342.462 12.2243 341.343 13.3431C340.224 14.462 339.462 15.8874 339.154 17.4393C338.845 18.9911 339.003 20.5997 339.609 22.0615C340.214 23.5233 341.24 24.7727 342.555 25.6518C343.871 26.5308 345.418 27 347 27C348.777 27.0022 350.502 26.407 351.9 25.31L355.29 28.71C355.383 28.8037 355.494 28.8781 355.615 28.9289C355.737 28.9797 355.868 29.0058 356 29.0058C356.132 29.0058 356.263 28.9797 356.385 28.9289C356.506 28.8781 356.617 28.8037 356.71 28.71C356.804 28.617 356.878 28.5064 356.929 28.3846C356.98 28.2627 357.006 28.132 357.006 28C357.006 27.868 356.98 27.7373 356.929 27.6154C356.878 27.4936 356.804 27.383 356.71 27.29ZM341 19C341 17.8133 341.352 16.6533 342.011 15.6666C342.67 14.6799 343.608 13.9109 344.704 13.4567C345.8 13.0026 347.007 12.8838 348.171 13.1153C349.334 13.3468 350.404 13.9182 351.243 14.7574C352.082 15.5965 352.653 16.6656 352.885 17.8295C353.116 18.9933 352.997 20.1997 352.543 21.2961C352.089 22.3925 351.32 23.3295 350.333 23.9888C349.347 24.6481 348.187 25 347 25C345.409 25 343.883 24.3679 342.757 23.2426C341.632 22.1174 341 20.5913 341 19Z" fill="black"/>
</svg>
